Coordinates
version=1
nRows=17
nColumns=34
inDegrees=yes

Units are S.I. units (second, meters, Newtons, ...)
If the header above contains a line with 'inDegrees', this indicates whether rotational values are in degrees (yes) or radians (no).

endheader
time	pelvis_tilt	pelvis_list	pelvis_rotation	pelvis_tx	pelvis_ty	pelvis_tz	hip_flexion_r	hip_adduction_r	hip_rotation_r	knee_angle_r	ankle_angle_r	subtalar_angle_r	mtp_angle_r	hip_flexion_l	hip_adduction_l	hip_rotation_l	knee_angle_l	ankle_angle_l	subtalar_angle_l	mtp_angle_l	lumbar_extension	lumbar_bending	lumbar_rotation	arm_flex_r	arm_add_r	arm_rot_r	elbow_flex_r	pro_sup_r	arm_flex_l	arm_add_l	arm_rot_l	elbow_flex_l	pro_sup_l
      6.48333330	      1.09253175	    -13.80601006	    -44.35963226	      4.06616903	      0.98759890	      1.31160333	      4.63958983	     10.50214861	     -9.57868910	     28.18087342	     16.57169632	     -1.22797859	      0.00000000	     -2.14412124	      8.93946716	      5.05769056	      5.77581129	      6.04148741	     -9.22385676	      0.00000000	    -10.10466817	     -2.10982416	    -17.87848696	      4.47514717	      8.23017673	     32.77181160	     90.99455446	    119.74817918	      5.42478657	     -5.92264959	     25.64107862	     99.20535115	    119.74817918
      6.50000000	      1.08257866	    -13.36914990	    -44.26096072	      4.06670504	      0.98720555	      1.31253742	      4.95009543	     10.20698400	     -9.72412938	     28.20072752	     16.32280960	     -1.70585552	      0.00000000	     -1.95593442	      9.36693943	      6.50654116	      5.66369742	      5.34531433	    -11.64659555	      0.00000000	     -9.58720581	     -2.63590639	    -18.51799042	      4.37616918	      8.37230218	     33.49332023	     90.64246130	    119.74817918	      4.85088078	     -6.26771953	     24.55908206	     99.89694470	    119.74817918
      6.51666670	      1.00584904	    -13.31785607	    -44.39995726	      4.06719884	      0.98695339	      1.31318654	      4.85647867	     10.19749649	     -9.91499583	     27.95436541	     16.28965124	     -1.25072232	      0.00000000	     -1.94931109	      9.41118259	      6.99955504	      5.63435223	      5.38305890	    -12.55050181	      0.00000000	     -9.40291138	     -2.71960213	    -18.29374600	      4.05293273	      8.07779451	     33.91583305	     91.11003178	    119.74817918	      5.08475329	     -6.72867024	     24.69112114	    100.35946886	    119.74817918
      6.53333330	      1.02119084	    -13.15430855	    -44.55655890	      4.06731960	      0.98696608	      1.31443406	      4.70467997	     10.10876588	     -9.80359344	     27.60428693	     16.04844614	     -0.61590472	      0.00000000	     -1.84496841	      9.53922496	      7.12888875	      5.70702300	      5.29163774	    -13.02937552	      0.00000000	     -9.10655991	     -3.08656603	    -18.24477549	      3.80726851	      7.91397879	     34.46464709	     91.32559512	    119.74817918	      5.13184460	     -7.38433900	     24.75242440	    100.66965954	    119.74817918
      6.55000000	      0.73924071	    -12.94116599	    -45.07744024	      4.06702874	      0.98649796	      1.31527259	      4.90220650	     10.06027019	     -9.93544143	     27.39918176	     15.86928057	      0.68008051	      0.00000000	     -1.65392325	      9.52232257	      7.25515954	      5.30271247	      4.65620700	    -13.94517902	      0.00000000	     -8.60063014	     -3.17206668	    -17.94337260	      3.72585980	      7.79915111	     35.12863164	     91.29122612	    119.74817918	      5.21886519	     -7.90699939	     24.87052886	    101.17269662	    119.74817918
      6.56666670	      0.62145167	    -12.73408905	    -45.44451401	      4.06721630	      0.98619663	      1.31579588	      4.92789074	      9.76472925	    -10.55126521	     27.14052292	     14.85398231	      1.21763135	      0.00000000	     -1.52331935	      9.63433349	      7.25305523	      5.09842868	      4.43772054	    -14.30680919	      0.00000000	     -8.25725051	     -3.39130286	    -17.43151539	      3.49139554	      7.50536305	     35.18043682	     91.05865258	    119.74817918	      5.42822188	     -7.96872252	     24.82622440	    101.60581927	    119.74817918
      6.58333330	      0.44506588	    -12.76122426	    -45.92103846	      4.06717278	      0.98610039	      1.31558565	      4.82491776	      9.28962504	    -12.52991321	     27.03248406	     14.24170682	      0.07979354	      0.00000000	     -1.53793640	      9.54873540	      6.94891125	      4.73857878	      4.12412482	    -14.86588172	      0.00000000	     -8.24481067	     -3.26290876	    -16.70314085	      3.46419368	      7.03149271	     35.34702956	     90.78012939	    119.74817918	      5.97700039	     -7.97871458	     25.12755624	    102.14737805	    119.74817918
      6.60000000	      0.24027253	    -12.72638364	    -46.11990348	      4.06665466	      0.98595061	      1.31582719	      4.74222656	      9.16300409	    -13.15930917	     26.80808865	     13.25692590	      0.23076790	      0.00000000	     -1.41431193	      9.43137127	      7.14835934	      4.58158649	      3.99054375	    -15.40686335	      0.00000000	     -8.20077112	     -3.33104471	    -16.23364083	      3.17663295	      6.68170687	     35.77334163	     90.48281631	    119.74817918	      6.44833247	     -8.19107611	     25.64679872	    102.71064655	    119.74817918
      6.61666670	      0.05396145	    -12.60952224	    -46.13799849	      4.06698076	      0.98566607	      1.31624179	      4.74571522	      8.99706966	    -13.42952722	     26.89046269	     14.17544854	      3.23328589	      0.00000000	     -1.32869621	      9.45402144	      8.68103426	      4.36575358	      2.74071331	    -17.89765826	      0.00000000	     -7.98864956	     -3.42590537	    -15.90385405	      2.48248442	      6.34295948	     35.91296425	     90.38048126	    119.74817918	      6.85766372	     -8.36800554	     26.25721052	    103.09029570	    119.74817918
      6.63333330	     -0.10817188	    -12.50257439	    -46.13924565	      4.06745457	      0.98556599	      1.31692096	      4.57985020	      9.01950182	    -13.21919669	     26.56552921	     14.01204240	      4.05058049	      0.00000000	     -1.13907955	      9.42339238	      8.90907525	      4.44502034	      2.85517397	    -18.00632772	      0.00000000	     -7.84231002	     -3.57299212	    -15.72719785	      1.80808107	      6.05071899	     36.12950206	     90.04219015	    119.74817918	      6.95674088	     -8.22379006	     26.21003161	    103.51901421	    119.74817918
      6.65000000	     -0.53821087	    -12.52852084	    -46.18461806	      4.06904955	      0.98502934	      1.31670091	      4.39613872	      8.76938273	    -14.79770714	     26.32392786	     14.54942327	      7.49420078	      0.00000000	     -0.95836545	      9.17287351	      9.23846218	      4.34019092	      2.76722813	    -18.68383373	      0.00000000	     -7.55064899	     -3.15936013	    -15.55988301	      1.38498901	      5.50899767	     36.25629901	     89.49766326	    119.74817918	      7.19389759	     -7.81291025	     26.12886950	    103.78878226	    119.74817918
      6.66666670	     -0.65525304	    -12.42390157	    -46.09859796	      4.06949517	      0.98484559	      1.31659647	      4.12536781	      8.66759345	    -14.68101610	     25.84981457	     14.32705422	      8.35256744	      0.00000000	     -0.71010131	      9.20811713	      9.46932233	      4.52188056	      2.77601338	    -18.74858717	      0.00000000	     -7.42485987	     -3.29072763	    -15.55078520	      1.10534468	      5.37399348	     36.33092122	     88.91309224	    119.74817918	      7.75209407	     -7.85480721	     26.37951324	    104.31656510	    119.74817918
      6.68333330	     -0.69898372	    -12.67269718	    -45.51324988	      4.07135644	      0.98462601	      1.31556425	      3.55686286	      8.23440904	    -16.75239028	     25.74225761	     15.33641484	     11.57430728	      0.00000000	     -0.66950934	      9.10520121	     10.09013044	      5.04074031	      2.84592802	    -19.21631165	      0.00000000	     -7.60950344	     -3.04675592	    -15.80143443	      0.77566031	      5.07848022	     36.15967679	     88.62174374	    119.74817918	      8.60194824	     -7.52876482	     26.58305624	    104.06579785	    119.74817918
      6.70000000	     -0.72905216	    -12.71341643	    -45.37910501	      4.07251808	      0.98431879	      1.31531596	      3.13697661	      8.22193390	    -16.46516931	     25.37509788	     16.29283273	     11.93672223	      0.00000000	     -0.55071210	      9.14784162	     10.15769514	      5.37559481	      2.92017177	    -19.31616447	      0.00000000	     -7.47302759	     -2.98111539	    -15.83901124	      0.56394101	      4.79086904	     36.15967551	     88.47227829	    119.74817918	      9.06440657	     -7.16315844	     26.27407442	    103.88510312	    119.74817918
      6.71666670	     -0.54781190	    -12.89927521	    -45.30092224	      4.07401585	      0.98417965	      1.31481491	      2.43370166	      8.08399285	    -16.23339006	     25.00344618	     17.53781647	     12.48572317	      0.00000000	     -0.47972947	      9.28084971	     10.21384188	      6.16472928	      3.19214468	    -19.54876284	      0.00000000	     -7.45068636	     -2.80313987	    -15.85578626	      0.23694516	      4.40757263	     36.10692851	     88.87277559	    119.74817918	      9.54008958	     -6.66417600	     25.76170802	    103.35447089	    119.74817918
      6.73333330	     -0.21197872	    -13.58376204	    -45.04916182	      4.07605275	      0.98466811	      1.31387955	      1.21344801	      7.83455509	    -17.32441537	     24.72436210	     18.45836400	     14.86273332	      0.00000000	     -0.91558015	      9.17859716	     10.25785119	      7.00137012	      3.75737075	    -19.57316020	      0.00000000	     -7.92088698	     -2.20741512	    -15.66697324	     -0.17993825	      3.81725778	     35.86471149	     89.66307026	    119.74817918	     10.46104971	     -6.13082311	     25.86355362	    102.42891922	    119.74817918
      6.75000000	     -0.04985138	    -13.74023104	    -44.75602426	      4.07832814	      0.98458781	      1.31346256	      0.60814164	      7.66923649	    -17.24879290	     24.50384992	     19.60449489	     14.76158409	      0.00000000	     -1.03243515	      9.28494195	     10.27036979	      7.44770927	      3.88659013	    -19.54062646	      0.00000000	     -7.75998058	     -1.94385421	    -15.96057312	     -0.25586828	      3.33879518	     36.31394190	     90.23019706	    119.74817918	     10.93925746	     -5.74584447	     25.78361295	    101.83456814	    119.74817918
